<svg class="i-lockup-symbol" viewBox="0 0 266 101" fill="none" xmlns="http://www.w3.org/2000/svg">
    <path d="M266 47.3C265.9 47.2 265.8 47.1 265.6 46.9C265.7 46.7 265.8 46.7 265.9 46.5L265 41.3L264.1 36.1C263.9 36 263.8 35.9 263.7 35.8C263.8 35.6 263.8 35.5 263.9 35.3L261.8 30.5L259.7 25.7C259.5 25.6 259.4 25.6 259.2 25.5C259.2 25.3 259.3 25.2 259.3 25L256.2 20.8L253.1 16.5C252.9 16.5 252.8 16.5 252.6 16.4C252.6 16.2 252.6 16.1 252.6 15.9L248.6 12.4L244.6 8.9C244.4 8.9 244.3 8.9 244.1 9C244.1 8.8 244 8.7 244 8.5L239.4 6L234.8 3.5C234.6 3.6 234.5 3.6 234.3 3.7C234.2 3.5 234.2 3.4 234.1 3.2L228.9 2L223.8 0.6C223.6 0.7 223.5 0.8 223.4 0.9C223.3 0.7 223.2 0.7 223.1 0.5L217.8 0.3L212.6 0C212.5 0.1 212.4 0.2 212.2 0.4C212 0.3 212 0.2 211.8 0.1L206.6 1L201.4 1.9C201.3 2.1 201.2 2.2 201.1 2.3C200.9 2.2 200.8 2.2 200.6 2.1L195.8 4.2L191 6.3C190.9 6.5 190.9 6.6 190.8 6.8C190.6 6.8 190.5 6.7 190.3 6.7L186 9.8L182 12.7C182 12.9 182 13 181.9 13.2C181.7 13.2 181.6 13.2 181.4 13.1L177.4 16L173.4 18.9C173.4 19.1 173.4 19.2 173.3 19.4C173.1 19.4 173 19.4 172.8 19.3L168.8 22.2L164.8 25.1C164.8 25.3 164.8 25.4 164.7 25.6C164.5 25.6 164.4 25.6 164.2 25.5L160.2 28.4L156.2 31.3C156.2 31.5 156.1 31.6 156.1 31.8C155.9 31.8 155.8 31.8 155.6 31.7L151.6 34.6L147.6 37.5C147.6 37.7 147.6 37.8 147.5 38C147.3 38 147.2 38 147 37.9L143 40.8L139 43.7C139 43.9 138.9 44 138.9 44.2C138.7 44.2 138.6 44.2 138.4 44.1L134.4 47L130.4 49.9C130.4 50.1 130.4 50.2 130.3 50.4C130.1 50.4 130 50.4 129.8 50.3L125.8 53.2L121.8 56.1C121.8 56.3 121.8 56.4 121.7 56.6C121.5 56.6 121.4 56.6 121.2 56.5L117.2 59.4L113.2 62.3C113.2 62.5 113.2 62.6 113.1 62.8C112.9 62.8 112.8 62.8 112.6 62.7L108.6 65.6L104.6 68.5C104.6 68.7 104.6 68.8 104.5 69C104.3 69 104.2 69 104 68.9L100 71.8L96 74.7C96 74.9 96 75 95.9 75.2C95.7 75.2 95.6 75.2 95.4 75.1L91.4 78L87.4 80.9C87.4 81.1 87.4 81.2 87.3 81.4C87.1 81.4 87 81.4 86.8 81.3L82.8 84.2L78.8 87.1C78.8 87.3 78.8 87.4 78.7 87.6C78.5 87.6 78.4 87.6 78.2 87.5L74.2 90.4L71.4 92.4C71.4 92.6 71.3 92.7 71.3 92.8C71.2 92.7 71.1 92.7 70.9 92.6L67.6 93.7L64.3 94.8C64.2 94.9 64.2 95 64.1 95.2C64 95.1 63.9 95 63.8 94.9H60.3H55.4C55.3 95 55.2 95.1 55.1 95.3C55 95.2 54.9 95.1 54.7 94.9H49.8H44.9C44.8 95 44.7 95.1 44.6 95.3C44.5 95.2 44.4 95.1 44.2 94.9H39.3H34.4C34.3 95 34.2 95.1 34.1 95.3C34 95.2 33.9 95.1 33.7 94.9H28.8H23.9C23.8 95 23.7 95.1 23.6 95.3C23.5 95.2 23.4 95.1 23.2 94.9H18.3H16C15.9 95 15.8 95.1 15.7 95.2C15.6 95.1 15.6 95 15.5 94.8L13.5 94L11.3 93.1C11.1 93.1 11 93.2 10.9 93.2C10.9 93 10.9 92.9 10.9 92.8L9.2 91.1L7.5 89.4C7.3 89.4 7.2 89.4 7.1 89.4C7.1 89.2 7.2 89.1 7.2 89L6.3 86.8L5.4 84.6C5.3 84.5 5.2 84.5 5 84.4C5.1 84.3 5.2 84.2 5.3 84.1V81.8V76.9C5.2 76.8 5.1 76.7 4.9 76.6C5 76.5 5.1 76.4 5.3 76.2V71.3V66.4C5.2 66.3 5.1 66.2 4.9 66.1C5 66 5.1 65.9 5.3 65.7V60.8V55.9C5.2 55.8 5.1 55.7 4.9 55.6C5 55.5 5.1 55.4 5.3 55.2V50.3V45.4C5.2 45 5.1 45 4.9 44.8C5 44.7 5.1 44.6 5.3 44.4V39.5V34.6C5.2 34.5 5.1 34.4 4.9 34.3C5 34.2 5.1 34.1 5.3 33.9V29V24.1C5.2 24 5.1 23.9 4.9 23.8C5 23.7 5.1 23.6 5.3 23.4V18.5V13.6C5.2 13.5 5.1 13.4 4.9 13.3C5 13.2 5.1 13.1 5.3 12.9V7.9V2.9C5.2 2.8 5.1 2.7 4.9 2.6H0.3C0.2 2.7 0.1 2.8 0 2.9V7.8V12.7C0.1 12.8 0.2 12.9 0.3 13.1C0.2 13.2 0.1 13.3 0 13.4V18.3V23.2C0.1 23.3 0.2 23.4 0.3 23.6C0.2 23.7 0.1 23.8 0 23.9V29V33.9C0.1 34 0.2 34.1 0.3 34.3C0.2 34.4 0.1 34.5 0 34.6V39.5V44.4C0.1 44.5 0.2 44.6 0.3 44.8C0.2 45 0.1 45 0 45.2V50.1V55C0.1 55.1 0.2 55.2 0.3 55.4C0.2 55.5 0.1 55.6 0 55.7V60.6V65.5C0.1 65.6 0.2 65.7 0.3 65.9C0.2 66 0.1 66.1 0 66.2V71.1V76C0.1 76.1 0.2 76.2 0.3 76.4C0.2 76.5 0.1 76.6 0 76.7V81.6V85C0.2 85.1 0.2 85.2 0.4 85.3C0.3 85.5 0.3 85.6 0.1 85.8L1.3 88.8L2.5 91.8C2.9 91.9 3 91.9 3.2 92C3.2 92.2 3.2 92.3 3.2 92.5L5.5 94.8L7.8 97.1C8 97.1 8.1 97.1 8.3 97.1C8.4 97.3 8.4 97.4 8.5 97.6L11.5 98.8L14.5 100C14.7 99.9 14.8 99.9 15 99.7C15.1 99.9 15.2 99.9 15.3 100.1H18.6H23.5C23.6 100 23.7 99.9 23.9 99.8C24 99.9 24.1 100 24.2 100.1H29.1H34C34.1 100 34.2 99.9 34.4 99.8C34.5 99.9 34.6 100 34.7 100.1H39.6H44.5C44.6 100 44.7 99.9 44.9 99.8C45 99.9 45.1 100 45.2 100.1H50.1H55C55.1 100 55.2 99.9 55.4 99.8C55.5 99.9 55.6 100 55.7 100.1H60.6H65C65.1 99.9 65.2 99.9 65.3 99.7C65.5 99.8 65.6 99.9 65.8 100L69.8 98.7L73.8 97.4C73.9 97.2 73.9 97.1 74 96.9C74.2 97 74.3 97 74.5 97L77.9 94.5L81.9 91.6C81.9 91.4 81.9 91.3 82 91.1C82.2 91.1 82.3 91.1 82.5 91.2L86.5 88.3L90.5 85.4C90.5 85.2 90.5 85.1 90.6 84.9C90.8 84.9 90.9 84.9 91.1 85L95.1 82.1L99.1 79.2C99.1 79 99.2 78.9 99.2 78.7C99.4 78.7 99.5 78.7 99.7 78.8L103.7 75.9L107.7 73C107.7 72.8 107.7 72.7 107.8 72.5C108 72.5 108.1 72.5 108.3 72.6L112.3 69.7L116.3 66.8C116.3 66.6 116.4 66.5 116.4 66.3C116.6 66.3 116.7 66.3 116.9 66.4L120.9 63.5L124.9 60.6C124.9 60.4 124.9 60.3 125 60.1C125.2 60.1 125.3 60.1 125.5 60.2L129.5 57.3L133.5 54.4C133.5 54.2 133.5 54.1 133.6 53.9C133.8 53.9 133.9 53.9 134.1 54L138.1 51.1L142.1 48.2C142.1 48 142.1 47.9 142.2 47.7C142.4 47.7 142.5 47.7 142.7 47.8L146.7 44.9L150.7 42C150.7 41.8 150.7 41.7 150.8 41.5C151 41.5 151.1 41.5 151.3 41.6L155.3 38.7L159.3 35.8C159.3 35.6 159.3 35.5 159.4 35.3C159.6 35.3 159.7 35.3 159.9 35.4L163.9 32.5L167.9 29.6C167.9 29.4 167.9 29.3 168 29.1C168.2 29.1 168.3 29.1 168.5 29.2L172.5 26.3L176.5 23.4C176.5 23.2 176.5 23.1 176.6 22.9C176.8 22.9 176.9 22.9 177.1 23L181.1 20.1L185.1 17.2C185.1 17 185.1 16.9 185.2 16.7C185.4 16.7 185.5 16.7 185.7 16.8L189.7 13.9L193.5 11.1C193.5 10.9 193.6 10.8 193.6 10.6C193.8 10.7 193.9 10.7 194 10.7L198.4 8.8L202.8 6.9C202.9 6.7 202.9 6.6 203 6.5C203.2 6.6 203.2 6.6 203.4 6.7L208.1 5.9L212.8 5.1C212.9 5 213 4.9 213.1 4.7C213.2 4.8 213.3 4.9 213.4 5L218.1 5.2L222.8 5.4C222.9 5.3 223 5.2 223.2 5.1C223.3 5.3 223.4 5.3 223.5 5.5L228.1 6.8L232.7 8.1C232.9 8 233 8 233.1 7.9C233.1 8.1 233.2 8.2 233.2 8.3L237.4 10.5L241.6 12.7C241.8 12.7 241.9 12.6 242 12.6C242 12.8 242 12.9 242.1 13.1L245.7 16.2L249.3 19.3C249.5 19.3 249.6 19.3 249.8 19.3C249.8 19.5 249.8 19.6 249.8 19.8L252.6 23.6L255.4 27.4C255.6 27.4 255.7 27.5 255.8 27.5C255.8 27.7 255.7 27.8 255.7 27.9L257.6 32.3L259.5 36.7C259.7 36.8 259.8 36.8 259.9 36.9C259.8 37.1 259.8 37.1 259.7 37.3L260.5 42L261.3 46.7C261.4 46.8 261.5 46.9 261.7 47C261.6 47.1 261.5 47.2 261.4 47.3L261.2 52L261 56.7C261.1 56.8 261.2 56.9 261.3 57.1C261.1 57.2 261.1 57.3 260.9 57.4L259.6 62L258.3 66.6C258.4 66.8 258.4 66.9 258.5 67C258.3 67.1 258.2 67.1 258.1 67.2L255.8 71.4L253.6 75.6C253.6 75.8 253.7 75.9 253.7 76C253.5 76 253.4 76 253.2 76.1L250.1 79.7L247 83.3C247 83.5 247 83.6 247 83.8C246.8 83.8 246.7 83.8 246.5 83.8L242.7 86.6L238.7 89.5C238.7 89.7 238.7 89.8 238.6 90C238.4 90 238.3 90 238.1 89.9L234.1 92.8L230.1 95.7C230.1 95.9 230.1 96 230 96.2L232.7 99.9C232.9 99.9 233 99.9 233.2 100L237.2 97.1L241.2 94.2C241.2 94 241.2 93.9 241.3 93.7C241.5 93.7 241.6 93.7 241.8 93.8L245.8 90.9L250.1 87.8C250.1 87.6 250.1 87.5 250.2 87.3C250.4 87.3 250.5 87.3 250.7 87.3L254.2 83.3L257.7 79.3C257.7 79.1 257.7 79 257.6 78.8C257.8 78.8 257.9 78.7 258.1 78.7L260.6 74.1L263.1 69.5C263 69.3 263 69.2 262.9 69C263.1 68.9 263.2 68.9 263.4 68.8L264.8 63.7L266.2 58.6C266.1 58.4 266 58.3 265.9 58.2C266.1 58.1 266.1 58 266.3 57.9L266.5 52.6L266 47.3Z" fill="white"/>
</svg>